# Blender v2.79 (sub 0) OBJ File: 'axes.blend'
# www.blender.org
o axes_default
v 2.000000 0.100000 0.000000
v 2.000000 0.200000 0.000000
v 2.000000 0.184776 0.076537
v 2.000000 0.092388 0.038268
v 2.000000 0.092388 -0.038268
v 2.000000 0.184776 -0.076537
v 2.000000 0.141421 0.141421
v 2.000000 0.070711 0.070711
v 2.000000 0.076537 0.184776
v 2.000000 0.038268 0.092388
v 2.000000 -0.000000 0.200000
v 2.000000 -0.000000 0.100000
v 2.000000 -0.076537 0.184776
v 2.000000 -0.038268 0.092388
v 2.000000 -0.092388 0.038268
v 2.000000 -0.184776 0.076537
v 2.000000 -0.200000 -0.000000
v 2.000000 -0.100000 -0.000000
v 2.000000 -0.070711 0.070711
v 2.000000 -0.141421 0.141421
v 2.000000 -0.184776 -0.076537
v 2.000000 -0.092388 -0.038268
v 2.000000 0.070711 -0.070711
v 2.000000 0.141421 -0.141421
v 2.000000 0.038268 -0.092388
v 2.000000 0.076537 -0.184776
v 2.000000 0.000000 -0.100000
v 2.000000 0.000000 -0.200000
v 2.000000 -0.038268 -0.092388
v 2.000000 -0.076537 -0.184776
v 2.000000 -0.141421 -0.141421
v 2.000000 -0.070711 -0.070711
v 0.092388 2.000000 0.038268
v 0.184776 2.000000 0.076537
v 0.200000 2.000000 0.000000
v 0.100000 2.000000 0.000000
v 0.070711 2.000000 0.070711
v 0.141421 2.000000 0.141421
v 0.038268 2.000000 0.092388
v 0.076537 2.000000 0.184776
v 0.000000 2.000000 0.100000
v 0.000000 2.000000 0.200000
v -0.038268 2.000000 0.092388
v -0.076537 2.000000 0.184776
v 0.184776 2.000000 -0.076537
v 0.092388 2.000000 -0.038268
v -0.100000 2.000000 0.000000
v -0.200000 2.000000 0.000000
v -0.184776 2.000000 0.076537
v -0.092388 2.000000 0.038268
v -0.092388 2.000000 -0.038268
v -0.184776 2.000000 -0.076537
v -0.141421 2.000000 0.141421
v -0.070711 2.000000 0.070711
v 0.141421 2.000000 -0.141421
v 0.070711 2.000000 -0.070711
v 0.076537 2.000000 -0.184776
v 0.038268 2.000000 -0.092388
v 0.000000 2.000000 -0.200000
v 0.000000 2.000000 -0.100000
v -0.076537 2.000000 -0.184776
v -0.038268 2.000000 -0.092388
v -0.070711 2.000000 -0.070711
v -0.141421 2.000000 -0.141421
v 0.038268 0.092388 2.000000
v 0.076537 0.184776 2.000000
v -0.000000 0.200000 2.000000
v -0.000000 0.100000 2.000000
v 0.070711 0.070711 2.000000
v 0.141421 0.141421 2.000000
v 0.092388 0.038268 2.000000
v 0.184776 0.076537 2.000000
v 0.100000 -0.000000 2.000000
v 0.200000 -0.000000 2.000000
v 0.092388 -0.038268 2.000000
v 0.184776 -0.076537 2.000000
v -0.076537 0.184776 2.000000
v -0.038268 0.092388 2.000000
v -0.000000 -0.100000 2.000000
v -0.000000 -0.200000 2.000000
v 0.076537 -0.184776 2.000000
v 0.038268 -0.092388 2.000000
v -0.038268 -0.092388 2.000000
v -0.076537 -0.184776 2.000000
v 0.141421 -0.141421 2.000000
v 0.070711 -0.070711 2.000000
v -0.141421 0.141421 2.000000
v -0.070711 0.070711 2.000000
v -0.184776 0.076537 2.000000
v -0.092388 0.038268 2.000000
v -0.200000 -0.000000 2.000000
v -0.100000 -0.000000 2.000000
v -0.184776 -0.076537 2.000000
v -0.092388 -0.038268 2.000000
v -0.070711 -0.070711 2.000000
v -0.141421 -0.141421 2.000000
v 0.092388 0.092388 0.038268
v 0.100000 0.100000 0.000000
v 0.070711 0.070711 0.070711
v 0.092388 0.038268 0.092388
v 0.100000 -0.000000 0.100000
v 0.092388 -0.038268 0.092388
v 2.500000 -0.000000 0.000000
v 0.000000 -0.092388 -0.038268
v -0.000000 -0.100000 -0.000000
v 0.038268 -0.092388 0.038268
v 0.070711 -0.070711 0.070711
v 0.092388 0.092388 -0.038268
v 0.070711 0.070711 -0.070711
v 0.038268 0.038268 -0.092388
v 0.000000 0.000000 -0.100000
v 0.000000 -0.070711 -0.070711
v 0.000000 -0.038268 -0.092388
v 0.038268 0.092388 0.092388
v 0.000000 0.100000 0.100000
v 0.000000 2.500000 0.000000
v -0.092388 0.038268 0.038268
v -0.100000 0.000000 0.000000
v -0.070711 0.070711 0.070711
v -0.038268 0.092388 0.092388
v -0.038268 0.000000 -0.092388
v -0.092388 0.000000 -0.038268
v -0.070711 0.000000 -0.070711
v -0.000000 -0.000000 2.500000
v -0.092388 -0.038268 -0.000000
v -0.038268 -0.092388 -0.000000
v -0.070711 -0.070711 -0.000000
v -0.085355 -0.035355 -0.038268
v -0.065328 -0.065328 -0.038268
v -0.035355 -0.085355 -0.038268
v -0.065328 -0.027060 -0.070711
v -0.050000 -0.050000 -0.070711
v -0.027060 -0.065328 -0.070711
v -0.035355 -0.014645 -0.092388
v -0.027060 -0.027060 -0.092388
v -0.014645 -0.035355 -0.092388
vt 0.037694 0.851634
vt 0.069286 0.885347
vt 0.058200 0.849427
vt 0.077767 0.844136
vt 0.016599 0.852720
vt 0.047219 0.893129
vt 0.300395 0.850028
vt 0.324768 0.897066
vt 0.320336 0.851397
vt 0.280483 0.846551
vt 0.294642 0.889020
vt 0.253638 0.877056
vt 0.272023 0.882532
vt 0.206111 0.836274
vt 0.219708 0.870099
vt 0.224324 0.838760
vt 0.236446 0.873101
vt 0.242593 0.841794
vt 0.261035 0.845407
vt 0.187217 0.866639
vt 0.203070 0.868051
vt 0.106927 0.874689
vt 0.097270 0.841879
vt 0.123600 0.871076
vt 0.116077 0.840132
vt 0.139420 0.868529
vt 0.134279 0.839142
vt 0.152196 0.835842
vt 0.170256 0.836281
vt 0.187991 0.837425
vt 0.171560 0.866478
vt 0.632152 0.849294
vt 0.603761 0.881785
vt 0.626376 0.888283
vt 0.656497 0.896342
vt 0.652092 0.850672
vt 0.348355 0.851864
vt 0.378951 0.892286
vt 0.369450 0.850787
vt 0.401023 0.884513
vt 0.389958 0.848589
vt 0.409529 0.843306
vt 0.612242 0.845809
vt 0.585380 0.876302
vt 0.447840 0.839319
vt 0.471166 0.867726
vt 0.466043 0.838337
vt 0.483962 0.835045
vt 0.438670 0.873872
vt 0.455345 0.870266
vt 0.429033 0.841058
vt 0.574355 0.841036
vt 0.592796 0.844657
vt 0.556089 0.837993
vt 0.568190 0.872339
vt 0.537877 0.835499
vt 0.551454 0.869331
vt 0.518965 0.865856
vt 0.534816 0.867276
vt 0.503308 0.865689
vt 0.502022 0.835491
vt 0.519756 0.836643
vt 0.938998 0.846825
vt 0.952987 0.889334
vt 0.958896 0.850359
vt 0.983081 0.897467
vt 0.978832 0.851785
vt 0.675090 0.852238
vt 0.705548 0.892734
vt 0.696189 0.851212
vt 0.727647 0.885015
vt 0.716705 0.849064
vt 0.736294 0.843830
vt 0.912031 0.877254
vt 0.930394 0.882781
vt 0.774618 0.839936
vt 0.797847 0.868399
vt 0.792824 0.838997
vt 0.810754 0.835749
vt 0.755805 0.841628
vt 0.782018 0.870900
vt 0.765330 0.874465
vt 0.901127 0.841960
vt 0.919555 0.845626
vt 0.882871 0.838873
vt 0.894855 0.873249
vt 0.864667 0.836335
vt 0.878129 0.870199
vt 0.845652 0.866646
vt 0.861499 0.868103
vt 0.829996 0.866440
vt 0.828813 0.836239
vt 0.846543 0.837434
vt 0.060331 0.052373
vt 0.042037 0.049254
vt 0.022665 0.040018
vt 0.296910 0.049695
vt 0.278654 0.052770
vt 0.629147 0.048959
vt 0.648504 0.039786
vt 0.703746 0.048851
vt 0.722028 0.052022
vt 0.174558 0.987453
vt 0.016581 0.903093
vt 0.089100 0.879551
vt 0.205766 0.013407
vt 0.223969 0.028495
vt 0.242184 0.041278
vt 0.260413 0.049807
vt 0.740294 0.049149
vt 0.758532 0.040734
vt 0.078588 0.049448
vt 0.096790 0.040981
vt 0.114941 0.028301
vt 0.155468 0.867224
vt 0.169420 0.013392
vt 0.151245 0.013367
vt 0.610891 0.052025
vt 0.592652 0.049055
vt 0.374276 0.048408
vt 0.354909 0.039164
vt 0.392568 0.051535
vt 0.506233 0.986665
vt 0.420840 0.878726
vt 0.348308 0.902238
vt 0.447192 0.027486
vt 0.429034 0.040159
vt 0.410826 0.048618
vt 0.487215 0.866428
vt 0.574427 0.040518
vt 0.556220 0.027727
vt 0.538026 0.012631
vt 0.483505 0.012568
vt 0.501680 0.012600
vt 0.940348 0.053043
vt 0.958614 0.050022
vt 0.832508 0.987424
vt 0.747484 0.879277
vt 0.674871 0.902611
vt 0.776734 0.028106
vt 0.813900 0.867141
vt 0.903924 0.041447
vt 0.885760 0.028612
vt 0.867618 0.013472
vt 0.813097 0.013276
vt 0.831272 0.013353
vt 0.922119 0.050028
vt 0.465326 0.012530
vt 0.364235 0.978201
vt 0.346182 0.966772
vt 0.348501 0.981892
vt 0.332723 0.982895
vt 0.333089 0.968040
vt 0.317335 0.981183
vt 0.320131 0.966637
vt 0.794918 0.013193
vt 0.359659 0.962740
vt 0.343134 0.952870
vt 0.333336 0.954181
vt 0.323543 0.952839
vt 0.306987 0.962290
vt 0.352750 0.948758
vt 0.338872 0.939282
vt 0.333434 0.940190
vt 0.327991 0.939228
vt 0.314028 0.948591
vt 0.343799 0.936511
vt 0.333498 0.925507
vt 0.323089 0.936412
vt 0.133065 0.013337
vt 0.316259 0.040515
vt 0.684411 0.039559
vt 0.187595 0.013406
vt 0.519855 0.012623
vt 0.978001 0.040896
vt 0.849447 0.013419
vt 0.302144 0.977166
vn -1.0000 0.0000 0.0000
vn 0.0000 -1.0000 0.0000
vn 0.0000 0.0000 -1.0000
vn 0.0000 0.9239 0.3827
vn 0.0000 1.0000 0.0000
vn -0.0258 0.8944 0.4464
vn 0.0000 0.7071 0.7071
vn -0.0258 0.4464 0.8944
vn 0.0000 0.3827 0.9239
vn 0.0000 0.0000 1.0000
vn 0.0000 -0.3827 0.9239
vn 0.8944 -0.0258 0.4464
vn 0.7071 -0.0000 0.7071
vn 0.8944 0.4464 -0.0258
vn 0.7071 0.7071 0.0000
vn 0.9239 0.3827 0.0000
vn 1.0000 0.0000 0.0000
vn 0.3714 0.3553 0.8578
vn 0.3714 0.0000 0.9285
vn 0.3714 0.6565 0.6565
vn 0.3714 0.8578 0.3553
vn 0.3714 0.9285 -0.0000
vn 0.3714 0.8578 -0.3553
vn 0.3714 -0.3553 0.8578
vn 0.3714 -0.9285 0.0000
vn 0.3714 -0.8578 -0.3553
vn -0.0393 -0.9985 -0.0393
vn 0.0000 -0.9239 -0.3827
vn -0.0887 -0.9529 0.2899
vn 0.0000 -0.9239 0.3827
vn -0.0662 -0.7699 0.6348
vn 0.0000 -0.7071 0.7071
vn -0.0258 -0.4464 0.8944
vn 0.8944 -0.4464 -0.0258
vn 0.7071 -0.7071 -0.0000
vn 0.6348 -0.7699 -0.0662
vn 0.9239 -0.3827 -0.0000
vn 0.3714 -0.6565 0.6565
vn 0.3714 -0.8578 0.3553
vn 0.0000 0.7071 -0.7071
vn -0.0258 0.8944 -0.4464
vn 0.0000 0.9239 -0.3827
vn 0.0000 0.3827 -0.9239
vn -0.0662 0.6348 -0.7699
vn -0.0887 0.2899 -0.9529
vn 0.3714 0.0000 -0.9285
vn 0.3714 0.3553 -0.8578
vn 0.3714 -0.3553 -0.8578
vn 0.3714 0.6565 -0.6565
vn -0.0789 -0.7110 -0.6987
vn 0.0000 -0.7071 -0.7071
vn -0.0509 -0.3940 -0.9177
vn 0.0000 -0.3827 -0.9239
vn 0.3714 -0.6565 -0.6565
vn 0.9239 0.0000 -0.3827
vn 0.9239 -0.0000 0.3827
vn 0.8944 -0.0258 -0.4464
vn 0.7071 0.0000 -0.7071
vn 0.4464 -0.0258 0.8944
vn 0.3827 -0.0000 0.9239
vn 0.0000 0.3714 0.9285
vn 0.3553 0.3714 0.8578
vn -0.3553 0.3714 0.8578
vn 0.6565 0.3714 0.6565
vn 0.8578 0.3714 0.3553
vn 0.9285 0.3714 -0.0000
vn 0.8578 0.3714 -0.3553
vn 0.0000 0.3714 -0.9285
vn -0.3553 0.3714 -0.8578
vn -0.9529 -0.0887 0.2899
vn -0.9239 -0.0000 0.3827
vn -0.7699 -0.0662 0.6348
vn -0.7071 -0.0000 0.7071
vn -0.4464 -0.0258 0.8944
vn -0.3827 -0.0000 0.9239
vn -0.6565 0.3714 0.6565
vn -0.8578 0.3714 0.3553
vn -0.9285 0.3714 -0.0000
vn -0.8578 0.3714 -0.3553
vn 0.3827 0.0000 -0.9239
vn 0.6348 -0.0662 -0.7699
vn 0.2899 -0.0887 -0.9529
vn -0.0647 -0.0647 -0.9958
vn -0.3827 0.0000 -0.9239
vn 0.3553 0.3714 -0.8578
vn 0.6565 0.3714 -0.6565
vn -0.7071 0.0000 -0.7071
vn -0.9224 -0.0854 -0.3767
vn -0.9239 0.0000 -0.3827
vn -0.7172 -0.0698 -0.6934
vn -0.6565 0.3714 -0.6565
vn -0.3827 0.9239 0.0000
vn 0.4464 0.8944 -0.0258
vn 0.3827 0.9239 0.0000
vn 0.9285 -0.0000 0.3714
vn 0.8578 0.3553 0.3714
vn 0.8578 -0.3553 0.3714
vn 0.6565 0.6565 0.3714
vn 0.3553 0.8578 0.3714
vn 0.0000 0.9285 0.3714
vn -0.3553 0.8578 0.3714
vn -0.9285 -0.0000 0.3714
vn -0.8578 -0.3553 0.3714
vn 0.2899 -0.9529 -0.0887
vn 0.3827 -0.9239 -0.0000
vn 0.6565 -0.6565 0.3714
vn 0.3553 -0.8578 0.3714
vn 0.0000 -0.9285 0.3714
vn -0.3553 -0.8578 0.3714
vn -0.9239 0.3827 0.0000
vn -0.7699 0.6348 -0.0662
vn -0.9529 0.2899 -0.0887
vn -0.9985 -0.0391 -0.0391
vn -0.9239 -0.3827 -0.0000
vn -0.8578 0.3553 0.3714
vn -0.6565 0.6565 0.3714
vn -0.7071 -0.7071 -0.0000
vn -0.3797 -0.9200 -0.0968
vn -0.3827 -0.9239 -0.0000
vn -0.7037 -0.7037 -0.0981
vn -0.6565 -0.6565 0.3714
vn -0.4464 0.8944 -0.0258
vn -0.7071 0.7071 0.0000
vn -0.8532 -0.3639 -0.3737
vn -0.9197 -0.3809 -0.0957
vn -0.6491 -0.6626 -0.3737
vn -0.3461 -0.8606 -0.3737
vn -0.6589 -0.2919 -0.6933
vn -0.4970 -0.5219 -0.6933
vn -0.2595 -0.6723 -0.6933
vn -0.0861 -0.9212 -0.3795
vn -0.3672 -0.1765 -0.9133
vn -0.2716 -0.3036 -0.9133
vn -0.1348 -0.3844 -0.9133
vn -0.3821 -0.0419 -0.9232
s 1
f 4/1/1 2/2/1 1/3/1
f 2/2/1 5/4/1 1/3/1
f 8/5/1 3/6/1 4/1/1
f 10/7/1 7/8/1 8/9/1
f 12/10/1 9/11/1 10/7/1
f 12/10/1 13/12/1 11/13/1
f 18/14/1 16/15/1 15/16/1
f 15/16/1 20/17/1 19/18/1
f 19/18/1 13/12/1 14/19/1
f 18/14/1 21/20/1 17/21/1
f 5/4/1 24/22/1 23/23/1
f 23/23/1 26/24/1 25/25/1
f 25/25/1 28/26/1 27/27/1
f 28/26/1 29/28/1 27/27/1
f 32/29/1 21/20/1 22/30/1
f 29/28/1 31/31/1 32/29/1
f 33/32/2 35/33/2 34/34/2
f 33/32/2 38/35/2 37/36/2
f 37/37/2 40/38/2 39/39/2
f 39/39/2 42/40/2 41/41/2
f 42/40/2 43/42/2 41/41/2
f 36/43/2 45/44/2 35/33/2
f 50/45/2 48/46/2 47/47/2
f 48/46/2 51/48/2 47/47/2
f 50/45/2 53/49/2 49/50/2
f 43/42/2 53/49/2 54/51/2
f 56/52/2 45/44/2 46/53/2
f 58/54/2 55/55/2 56/52/2
f 60/56/2 57/57/2 58/54/2
f 60/56/2 61/58/2 59/59/2
f 51/48/2 64/60/2 63/61/2
f 63/61/2 61/58/2 62/62/2
f 68/63/3 66/64/3 65/65/3
f 65/65/3 70/66/3 69/67/3
f 69/68/3 72/69/3 71/70/3
f 71/70/3 74/71/3 73/72/3
f 74/71/3 75/73/3 73/72/3
f 68/63/3 77/74/3 67/75/3
f 82/76/3 80/77/3 79/78/3
f 80/77/3 83/79/3 79/78/3
f 86/80/3 81/81/3 82/76/3
f 75/73/3 85/82/3 86/80/3
f 88/83/3 77/74/3 78/84/3
f 90/85/3 87/86/3 88/83/3
f 92/87/3 89/88/3 90/85/3
f 92/87/3 93/89/3 91/90/3
f 83/79/3 96/91/3 95/92/3
f 94/93/3 96/91/3 93/89/3
f 4/1/4 98/94/5 97/95/6
f 8/5/7 97/95/6 99/96/7
f 8/9/7 100/97/8 10/7/9
f 10/7/9 101/98/10 12/10/10
f 101/98/10 14/19/11 12/10/10
f 97/99/12 37/36/13 99/100/13
f 100/101/14 69/68/15 71/70/16
f 101/102/17 71/70/16 73/72/17
f 9/11/18 11/13/19 103/103/17
f 7/8/20 9/11/18 103/103/17
f 3/6/21 7/104/20 103/103/17
f 2/2/22 3/6/21 103/103/17
f 2/2/22 103/103/17 6/105/23
f 103/103/17 11/13/19 13/12/24
f 103/103/17 17/21/25 21/20/26
f 105/106/27 22/30/28 18/14/2
f 18/14/2 106/107/29 105/106/27
f 15/16/30 107/108/31 106/107/29
f 19/18/32 102/109/33 107/108/31
f 102/110/34 86/80/35 107/111/36
f 101/102/17 75/73/37 102/110/34
f 13/12/24 20/17/38 103/103/17
f 20/17/38 16/15/39 103/103/17
f 16/15/39 17/21/25 103/103/17
f 23/23/40 108/112/41 5/4/42
f 25/25/43 109/113/44 23/23/40
f 27/27/3 110/114/45 25/25/43
f 28/26/46 26/24/47 103/103/17
f 28/26/46 103/103/17 30/115/48
f 26/24/47 24/22/49 103/103/17
f 24/22/49 6/105/23 103/103/17
f 22/30/28 112/116/50 32/29/51
f 32/29/51 113/117/52 29/28/53
f 31/31/54 30/115/48 103/103/17
f 21/20/26 31/31/54 103/103/17
f 98/94/5 5/4/42 108/112/41
f 98/118/17 46/53/55 36/43/17
f 98/118/17 33/32/56 97/99/12
f 108/119/57 56/52/58 46/53/55
f 37/37/13 114/120/59 99/121/13
f 39/39/60 115/122/10 114/120/59
f 42/40/61 40/38/62 116/123/5
f 42/40/61 116/123/5 44/124/63
f 40/38/62 38/125/64 116/123/5
f 38/35/64 34/34/65 116/123/5
f 34/34/65 35/33/66 116/123/5
f 116/123/5 35/33/66 45/44/67
f 116/123/5 59/59/68 61/58/69
f 47/47/1 117/126/70 50/45/71
f 50/45/71 119/127/72 54/51/73
f 54/51/73 120/128/74 43/42/75
f 53/49/76 44/124/63 116/123/5
f 49/50/77 53/49/76 116/123/5
f 48/46/78 49/50/77 116/123/5
f 48/46/78 116/123/5 52/129/79
f 58/54/80 109/130/81 110/131/82
f 111/132/83 62/62/84 60/56/3
f 60/56/3 110/131/82 111/132/83
f 57/57/85 59/59/68 116/123/5
f 55/55/86 57/57/85 116/123/5
f 45/44/67 55/55/86 116/123/5
f 63/61/87 122/133/88 51/48/89
f 62/62/84 123/134/90 63/61/87
f 61/58/69 64/60/91 116/123/5
f 64/60/91 52/129/79 116/123/5
f 115/135/5 78/84/92 68/63/5
f 69/67/15 114/136/93 65/65/94
f 74/71/95 72/69/96 124/137/10
f 74/71/95 124/137/10 76/138/97
f 72/69/96 70/139/98 124/137/10
f 70/66/98 66/64/99 124/137/10
f 66/64/99 67/75/100 124/137/10
f 124/137/10 67/75/100 77/74/101
f 124/137/10 91/90/102 93/89/103
f 79/78/2 106/140/104 82/76/105
f 107/111/36 82/76/105 106/140/104
f 85/82/106 76/138/97 124/137/10
f 81/81/107 85/82/106 124/137/10
f 80/77/108 81/81/107 124/137/10
f 80/77/108 124/137/10 84/141/109
f 90/85/110 119/142/111 117/143/112
f 118/144/113 94/93/114 92/87/1
f 92/87/1 117/143/112 118/144/113
f 89/88/115 91/90/102 124/137/10
f 87/86/116 89/88/115 124/137/10
f 77/74/101 87/86/116 124/137/10
f 95/92/117 126/145/118 83/79/119
f 94/93/114 127/146/120 95/92/117
f 93/89/103 96/91/121 124/137/10
f 96/91/121 84/141/109 124/137/10
f 115/122/10 43/42/75 120/128/74
f 115/135/5 65/65/94 114/136/93
f 120/147/122 88/83/123 78/84/92
f 47/47/1 122/133/88 118/148/113
f 118/149/113 128/150/124 125/151/125
f 127/152/120 128/150/124 129/153/126
f 126/154/118 129/153/126 130/155/127
f 79/78/2 126/145/118 105/156/27
f 122/157/88 131/158/128 128/150/124
f 128/150/124 132/159/129 129/153/126
f 130/155/127 132/159/129 133/160/130
f 104/161/131 126/154/118 130/155/127
f 123/162/90 134/163/132 131/158/128
f 131/158/128 135/164/133 132/159/129
f 133/160/130 135/164/133 136/165/134
f 104/161/131 133/160/130 112/166/50
f 121/167/135 111/168/83 134/163/132
f 135/164/133 134/163/132 111/168/83
f 136/165/134 135/164/133 111/168/83
f 112/166/50 136/165/134 113/169/52
f 111/168/83 113/169/52 136/165/134
f 27/27/3 113/117/52 111/170/83
f 4/1/1 3/6/1 2/2/1
f 2/2/1 6/105/1 5/4/1
f 8/5/1 7/104/1 3/6/1
f 10/7/1 9/11/1 7/8/1
f 12/10/1 11/13/1 9/11/1
f 12/10/1 14/19/1 13/12/1
f 18/14/1 17/21/1 16/15/1
f 15/16/1 16/15/1 20/17/1
f 19/18/1 20/17/1 13/12/1
f 18/14/1 22/30/1 21/20/1
f 5/4/1 6/105/1 24/22/1
f 23/23/1 24/22/1 26/24/1
f 25/25/1 26/24/1 28/26/1
f 28/26/1 30/115/1 29/28/1
f 32/29/1 31/31/1 21/20/1
f 29/28/1 30/115/1 31/31/1
f 33/32/2 36/43/2 35/33/2
f 33/32/2 34/34/2 38/35/2
f 37/37/2 38/125/2 40/38/2
f 39/39/2 40/38/2 42/40/2
f 42/40/2 44/124/2 43/42/2
f 36/43/2 46/53/2 45/44/2
f 50/45/2 49/50/2 48/46/2
f 48/46/2 52/129/2 51/48/2
f 50/45/2 54/51/2 53/49/2
f 43/42/2 44/124/2 53/49/2
f 56/52/2 55/55/2 45/44/2
f 58/54/2 57/57/2 55/55/2
f 60/56/2 59/59/2 57/57/2
f 60/56/2 62/62/2 61/58/2
f 51/48/2 52/129/2 64/60/2
f 63/61/2 64/60/2 61/58/2
f 68/63/3 67/75/3 66/64/3
f 65/65/3 66/64/3 70/66/3
f 69/68/3 70/139/3 72/69/3
f 71/70/3 72/69/3 74/71/3
f 74/71/3 76/138/3 75/73/3
f 68/63/3 78/84/3 77/74/3
f 82/76/3 81/81/3 80/77/3
f 80/77/3 84/141/3 83/79/3
f 86/80/3 85/82/3 81/81/3
f 75/73/3 76/138/3 85/82/3
f 88/83/3 87/86/3 77/74/3
f 90/85/3 89/88/3 87/86/3
f 92/87/3 91/90/3 89/88/3
f 92/87/3 94/93/3 93/89/3
f 83/79/3 84/141/3 96/91/3
f 94/93/3 95/92/3 96/91/3
f 4/1/4 1/3/5 98/94/5
f 8/5/7 4/1/4 97/95/6
f 8/9/7 99/171/7 100/97/8
f 10/7/9 100/97/8 101/98/10
f 101/98/10 102/109/33 14/19/11
f 97/99/12 33/32/56 37/36/13
f 100/101/14 99/172/15 69/68/15
f 101/102/17 100/101/14 71/70/16
f 105/106/27 104/173/131 22/30/28
f 18/14/2 15/16/30 106/107/29
f 15/16/30 19/18/32 107/108/31
f 19/18/32 14/19/11 102/109/33
f 102/110/34 75/73/37 86/80/35
f 101/102/17 73/72/17 75/73/37
f 23/23/40 109/113/44 108/112/41
f 25/25/43 110/114/45 109/113/44
f 27/27/3 111/170/83 110/114/45
f 22/30/28 104/173/131 112/116/50
f 32/29/51 112/116/50 113/117/52
f 98/94/5 1/3/5 5/4/42
f 98/118/17 108/119/57 46/53/55
f 98/118/17 36/43/17 33/32/56
f 108/119/57 109/130/81 56/52/58
f 37/37/13 39/39/60 114/120/59
f 39/39/60 41/41/10 115/122/10
f 47/47/1 118/148/113 117/126/70
f 50/45/71 117/126/70 119/127/72
f 54/51/73 119/127/72 120/128/74
f 58/54/80 56/52/58 109/130/81
f 111/132/83 121/174/135 62/62/84
f 60/56/3 58/54/80 110/131/82
f 63/61/87 123/134/90 122/133/88
f 62/62/84 121/174/135 123/134/90
f 115/135/5 120/147/122 78/84/92
f 69/67/15 99/175/15 114/136/93
f 79/78/2 105/156/27 106/140/104
f 107/111/36 86/80/35 82/76/105
f 90/85/110 88/83/123 119/142/111
f 118/144/113 125/176/125 94/93/114
f 92/87/1 90/85/110 117/143/112
f 95/92/117 127/146/120 126/145/118
f 94/93/114 125/176/125 127/146/120
f 115/122/10 41/41/10 43/42/75
f 115/135/5 68/63/5 65/65/94
f 120/147/122 119/142/111 88/83/123
f 47/47/1 51/48/89 122/133/88
f 118/149/113 122/157/88 128/150/124
f 127/152/120 125/151/125 128/150/124
f 126/154/118 127/152/120 129/153/126
f 79/78/2 83/79/119 126/145/118
f 122/157/88 123/162/90 131/158/128
f 128/150/124 131/158/128 132/159/129
f 130/155/127 129/153/126 132/159/129
f 104/161/131 105/177/27 126/154/118
f 123/162/90 121/167/135 134/163/132
f 131/158/128 134/163/132 135/164/133
f 133/160/130 132/159/129 135/164/133
f 104/161/131 130/155/127 133/160/130
f 112/166/50 133/160/130 136/165/134
f 27/27/3 29/28/53 113/117/52
